<svg>
  <symbol id="instagram" width="30" height="30" viewBox="0 0 30 30" xmlns="http://www.w3.org/2000/svg">
    <g clip-path="url(#clip0_59_207)">
      <path d="M15.0051 7.29761C10.7514 7.29761 7.30762 10.7451 7.30762 14.9951C7.30762 19.2489 10.7551 22.6926 15.0051 22.6926C19.2589 22.6926 22.7026 19.2451 22.7026 14.9951C22.7026 10.7414 19.2551 7.29761 15.0051 7.29761ZM15.0051 19.9914C12.2439 19.9914 10.0089 17.7551 10.0089 14.9951C10.0089 12.2351 12.2451 9.99886 15.0051 9.99886C17.7651 9.99886 20.0014 12.2351 20.0014 14.9951C20.0026 17.7551 17.7664 19.9914 15.0051 19.9914Z"/>
      <path d="M21.1853 0.095454C18.4253 -0.033296 11.589 -0.027046 8.82653 0.095454C6.39903 0.209204 4.25778 0.795454 2.53153 2.5217C-0.353466 5.4067 0.0152841 9.29421 0.0152841 14.9955C0.0152841 20.8305 -0.309716 24.628 2.53153 27.4692C5.42778 30.3642 9.37153 29.9855 15.0053 29.9855C20.7853 29.9855 22.7803 29.9892 24.824 29.198C27.6028 28.1192 29.7003 25.6355 29.9053 21.1742C30.0353 18.413 30.0278 11.578 29.9053 8.81546C29.6578 3.5492 26.8315 0.355454 21.1853 0.095454ZM25.554 25.5605C23.6628 27.4517 21.039 27.283 14.969 27.283C8.71903 27.283 6.21278 27.3755 4.38403 25.5417C2.27778 23.4455 2.65903 20.0792 2.65903 14.9755C2.65903 8.0692 1.95028 3.09545 8.88153 2.74045C10.474 2.6842 10.9428 2.66545 14.9515 2.66545L15.0078 2.70295C21.669 2.70295 26.8953 2.00545 27.209 8.93545C27.2803 10.5167 27.2965 10.9917 27.2965 14.9942C27.2953 21.1717 27.4128 23.693 25.554 25.5605Z"/>
      <path d="M23.0077 8.79257C24.0012 8.79257 24.8065 7.98724 24.8065 6.99382C24.8065 6.0004 24.0012 5.19507 23.0077 5.19507C22.0143 5.19507 21.209 6.0004 21.209 6.99382C21.209 7.98724 22.0143 8.79257 23.0077 8.79257Z"/>
    </g>
  </symbol>

  <symbol id="vk" width="30" height="18" viewBox="0 0 30 18" xmlns="http://www.w3.org/2000/svg">
    <path d="M24.8938 10.285C24.4088 9.6725 24.5475 9.4 24.8938 8.8525C24.9 8.84625 28.9037 3.31375 29.3162 1.4375L29.3188 1.43625C29.5238 0.7525 29.3188 0.25 28.3275 0.25H25.0475C24.2125 0.25 23.8275 0.68125 23.6213 1.16375C23.6213 1.16375 21.9513 5.16125 19.5887 7.7525C18.8263 8.50125 18.4738 8.74125 18.0575 8.74125C17.8525 8.74125 17.5338 8.50125 17.5338 7.8175V1.43625C17.5338 0.61625 17.3 0.25 16.6087 0.25H11.4513C10.9275 0.25 10.6163 0.6325 10.6163 0.98875C10.6163 1.76625 11.7975 1.945 11.92 4.1325V8.87875C11.92 9.91875 11.7312 10.11 11.3125 10.11C10.1975 10.11 7.49125 6.09625 5.8875 1.5025C5.56375 0.61125 5.2475 0.25125 4.40625 0.25125H1.125C0.18875 0.25125 0 0.6825 0 1.165C0 2.0175 1.115 6.25625 5.185 11.8562C7.8975 15.6788 11.7175 17.75 15.1925 17.75C17.2812 17.75 17.5363 17.29 17.5363 16.4988C17.5363 12.8463 17.3475 12.5012 18.3937 12.5012C18.8787 12.5012 19.7137 12.7413 21.6637 14.585C23.8925 16.7712 24.2588 17.75 25.5063 17.75H28.7862C29.7212 17.75 30.195 17.29 29.9225 16.3825C29.2987 14.4738 25.0838 10.5475 24.8938 10.285Z"/>
  </symbol>

  <symbol id="fb" width="30" height="30" viewBox="0 0 30 30" xmlns="http://www.w3.org/2000/svg">
    <path d="M30 15C30 6.717 23.283 0 15 0C6.717 0 0 6.717 0 15C0 23.283 6.717 30 15 30C15.0881 30 15.1758 29.9982 15.2637 29.9966V18.3197H12.041V14.564H15.2637V11.8002C15.2637 8.59497 17.2204 6.85043 20.0796 6.85043C21.4487 6.85043 22.6257 6.95251 22.9688 6.99806V10.348H20.9972C19.4417 10.348 19.1405 11.0873 19.1405 12.1719V14.564H22.8598L22.375 18.3197H19.1405V29.4205C25.4102 27.6231 30 21.8468 30 15Z"/>
  </symbol>
</svg>
